<mxfile host="app.diagrams.net" agent="Mozilla/5.0 (Windows NT 10.0; Win64; x64) AppleWebKit/537.36 (KHTML, like Gecko) Chrome/132.0.0.0 Safari/537.36" version="26.0.11">
  <diagram name="PÃ¡gina-1" id="7WK7e9v6VvBMDCcfjscP">
    <mxGraphModel dx="880" dy="468" grid="1" gridSize="10" guides="1" tooltips="1" connect="1" arrows="1" fold="1" page="1" pageScale="1" pageWidth="827" pageHeight="1169" math="0" shadow="0">
      <root>
        <mxCell id="0" />
        <mxCell id="1" parent="0" />
        <mxCell id="SO2KQYRBMxC-Pjrfd2B2-1" value="Actor" style="shape=umlActor;verticalLabelPosition=bottom;verticalAlign=top;html=1;outlineConnect=0;" vertex="1" parent="1">
          <mxGeometry x="90" y="125" width="30" height="60" as="geometry" />
        </mxCell>
        <mxCell id="SO2KQYRBMxC-Pjrfd2B2-2" value="Workstation" style="verticalAlign=top;align=left;spacingTop=8;spacingLeft=2;spacingRight=12;shape=cube;size=10;direction=south;fontStyle=4;html=1;whiteSpace=wrap;" vertex="1" parent="1">
          <mxGeometry x="210" y="90" width="180" height="120" as="geometry" />
        </mxCell>
        <mxCell id="SO2KQYRBMxC-Pjrfd2B2-3" value="Web Browser" style="shape=module;align=left;spacingLeft=20;align=center;verticalAlign=top;whiteSpace=wrap;html=1;" vertex="1" parent="1">
          <mxGeometry x="240" y="130" width="100" height="50" as="geometry" />
        </mxCell>
        <mxCell id="SO2KQYRBMxC-Pjrfd2B2-4" value="Server" style="verticalAlign=top;align=left;spacingTop=8;spacingLeft=2;spacingRight=12;shape=cube;size=10;direction=south;fontStyle=4;html=1;whiteSpace=wrap;" vertex="1" parent="1">
          <mxGeometry x="560" y="90" width="180" height="120" as="geometry" />
        </mxCell>
        <mxCell id="SO2KQYRBMxC-Pjrfd2B2-5" value="Intranet" style="shape=module;align=left;spacingLeft=20;align=center;verticalAlign=top;whiteSpace=wrap;html=1;" vertex="1" parent="1">
          <mxGeometry x="590" y="135" width="100" height="50" as="geometry" />
        </mxCell>
        <mxCell id="SO2KQYRBMxC-Pjrfd2B2-6" value="Web Service" style="verticalAlign=top;align=left;spacingTop=8;spacingLeft=2;spacingRight=12;shape=cube;size=10;direction=south;fontStyle=4;html=1;whiteSpace=wrap;" vertex="1" parent="1">
          <mxGeometry x="240" y="290" width="220" height="170" as="geometry" />
        </mxCell>
        <mxCell id="SO2KQYRBMxC-Pjrfd2B2-7" value="SQL INJECTOR" style="shape=module;align=left;spacingLeft=20;align=center;verticalAlign=top;whiteSpace=wrap;html=1;" vertex="1" parent="1">
          <mxGeometry x="290" y="330" width="100" height="50" as="geometry" />
        </mxCell>
        <mxCell id="SO2KQYRBMxC-Pjrfd2B2-8" value="JSON PARSE" style="shape=folder;fontStyle=1;spacingTop=10;tabWidth=40;tabHeight=14;tabPosition=left;html=1;whiteSpace=wrap;" vertex="1" parent="1">
          <mxGeometry x="305" y="400" width="70" height="50" as="geometry" />
        </mxCell>
        <mxCell id="SO2KQYRBMxC-Pjrfd2B2-11" value="" style="endArrow=classic;html=1;rounded=0;exitX=0.5;exitY=0.5;exitDx=0;exitDy=0;exitPerimeter=0;entryX=0;entryY=0;entryDx=65;entryDy=180;entryPerimeter=0;" edge="1" parent="1" source="SO2KQYRBMxC-Pjrfd2B2-1" target="SO2KQYRBMxC-Pjrfd2B2-2">
          <mxGeometry width="50" height="50" relative="1" as="geometry">
            <mxPoint x="140" y="190" as="sourcePoint" />
            <mxPoint x="190" y="140" as="targetPoint" />
          </mxGeometry>
        </mxCell>
        <mxCell id="SO2KQYRBMxC-Pjrfd2B2-13" value="" style="endArrow=classic;startArrow=classic;html=1;rounded=0;exitX=0.525;exitY=-0.006;exitDx=0;exitDy=0;exitPerimeter=0;entryX=0;entryY=0;entryDx=65;entryDy=180;entryPerimeter=0;" edge="1" parent="1" source="SO2KQYRBMxC-Pjrfd2B2-2" target="SO2KQYRBMxC-Pjrfd2B2-4">
          <mxGeometry width="50" height="50" relative="1" as="geometry">
            <mxPoint x="490" y="200" as="sourcePoint" />
            <mxPoint x="540" y="150" as="targetPoint" />
          </mxGeometry>
        </mxCell>
        <mxCell id="SO2KQYRBMxC-Pjrfd2B2-14" value="&lt;font style=&quot;font-size: 12px;&quot;&gt;HTTP&lt;/font&gt;" style="text;strokeColor=none;fillColor=none;html=1;fontSize=24;fontStyle=1;verticalAlign=middle;align=center;" vertex="1" parent="1">
          <mxGeometry x="430" y="110" width="100" height="40" as="geometry" />
        </mxCell>
        <mxCell id="SO2KQYRBMxC-Pjrfd2B2-15" value="" style="endArrow=classic;startArrow=classic;html=1;rounded=0;exitX=0.529;exitY=-0.009;exitDx=0;exitDy=0;exitPerimeter=0;entryX=0;entryY=0;entryDx=120;entryDy=95;entryPerimeter=0;" edge="1" parent="1" source="SO2KQYRBMxC-Pjrfd2B2-6" target="SO2KQYRBMxC-Pjrfd2B2-4">
          <mxGeometry width="50" height="50" relative="1" as="geometry">
            <mxPoint x="401" y="163" as="sourcePoint" />
            <mxPoint x="570" y="165" as="targetPoint" />
            <Array as="points">
              <mxPoint x="650" y="380" />
            </Array>
          </mxGeometry>
        </mxCell>
        <mxCell id="SO2KQYRBMxC-Pjrfd2B2-16" value="&lt;font style=&quot;font-size: 12px;&quot;&gt;HTTP&lt;/font&gt;" style="text;strokeColor=none;fillColor=none;html=1;fontSize=24;fontStyle=1;verticalAlign=middle;align=center;" vertex="1" parent="1">
          <mxGeometry x="550" y="270" width="100" height="40" as="geometry" />
        </mxCell>
      </root>
    </mxGraphModel>
  </diagram>
</mxfile>
